# AST/ASF file generated using VICON BodyLanguage
# -----------------------------------------------
:version 1.10
:name VICON
:units
  mass 1.0
  length 0.45
  angle deg
:documentation
   .ast/.asf automatically generated from VICON data using
   VICON BodyBuilder and BodyLanguage model FoxedUp or BRILLIANT.MOD
:root
   order TX TY TZ RX RY RZ
   axis XYZ
   position 0 0 0  
   orientation 0 0 0 
:bonedata
  begin
     id 1 
     name lhipjoint
     direction 0.575328 -0.747301 0.332475 
     length 2.40933 
     axis 0 0 0  XYZ
  end
  begin
     id 2 
     name lfemur
     direction 0.34202 -0.939693 0  
     length 7.31453  
     axis 0 0 20  XYZ
    dof rx ry rz
    limits (-160.0 20.0)
           (-70.0 70.0)
           (-60.0 70.0)
  end
  begin
     id 3 
     name ltibia
     direction 0.34202 -0.939693 0   
     length 7.82185   
     axis 0 0 20   XYZ
    dof rx
    limits (-10.0 170.0)
  end
  begin
     id 4 
     name lfoot
     direction 0.0795993 -0.218697 0.972541   
     length 2.19173   
     axis -90 7.62852e-016 20   XYZ
    dof rx rz
    limits (-45.0 90.0)
           (-70.0 20.0)
  end
  begin
     id 5 
     name ltoes
     direction 1.53537e-011 -4.21894e-011 1   
     length 1.10023   
     axis -90 7.62852e-016 20   XYZ
    dof rx
    limits (-90.0 20.0)
  end
  begin
     id 6 
     name rhipjoint
     direction -0.513884 -0.783789 0.348708   
     length 2.29716  
     axis 0 0 0  XYZ 
  end
  begin
     id 7 
     name rfemur
     direction -0.34202 -0.939693 0   
     length 7.59573   
     axis 0 0 -20   XYZ
    dof rx ry rz
    limits (-160.0 20.0)
           (-70.0 70.0)
           (-70.0 60.0)
  end
  begin
     id 8 
     name rtibia
     direction -0.34202 -0.939693 0   
     length 7.66402   
     axis 0 0 -20   XYZ
    dof rx
    limits (-10.0 170.0)
 end
 begin
     id 9 
     name rfoot
     direction -0.137793 -0.378584 0.915253   
     length 2.27056  
     axis -90 -7.62852e-016 -20   XYZ
    dof rx rz
    limits (-45.0 90.0)
           (-20.0 70.0)
  end
  begin
     id 10 
     name rtoes
     direction -1.53493e-011 -4.22159e-011 1   
     length 1.11766   
     axis -90 -7.62852e-016 -20   XYZ
    dof rx
    limits (-90.0 20.0)
  end
  begin
     id 11 
     name lowerback
     direction -0.00732775 0.998356 -0.05685   
     length 2.16513   
     axis 0 0 0   XYZ
    dof rx ry rz
    limits (-20.0 45.0)
           (-30.0 30.0)
           (-30.0 30.0)
  end
  begin
     id 12 
     name upperback
     direction 0.0218081 0.999627 -0.0164647   
     length 2.16755   
     axis 0 0 0   XYZ
    dof rx ry rz
    limits (-20.0 45.0)
           (-30.0 30.0)
           (-30.0 30.0)
  end
  begin
     id 13 
     name thorax
     direction 0.02365 0.999661 0.0108914   
     length 2.16932   
     axis 0 0 0   XYZ
    dof rx ry rz
    limits (-20.0 45.0)
           (-30.0 30.0)
           (-30.0 30.0)
  end
  begin
     id 14 
     name lowerneck
     direction -0.0523929 0.978385 0.200044   
     length 1.63877   
     axis 0 0 0   XYZ
    dof rx ry rz
    limits (-20.0 45.0)
           (-30.0 30.0)
           (-30.0 30.0)
  end
  begin
     id 15 
     name upperneck
     direction 0.0448674 0.981321 -0.187074   
     length 1.69014   
     axis 0 0 0   XYZ
    dof rx ry rz
    limits (-20.0 45.0)
           (-30.0 30.0)
           (-30.0 30.0)
  end
  begin
     id 16
     name head
     direction 0.0199089 0.996118 -0.0857429  
     length 1.70094  
     axis 0 0 0   XYZ
    dof rx ry rz
    limits (-20.0 45.0)
           (-30.0 30.0)
           (-30.0 30.0)
  end
  begin
     id 17 
     name lclavicle
     direction 0.940366 0.30191 -0.156722  
     length 3.37521  
     axis 0 0 0   XYZ
    dof ry rz
    limits (-20.0 10.0)
           (0.0 20.0)
  end
  begin
     id 18 
     name lhumerus
     direction 1 -4.4897e-011 -1.7911e-027   
     length 5.25287   
     axis 180 -30 -90   XYZ
    dof rx ry rz
    limits (-60.0 90.0)
           (-90.0 90.0)
           (-90.0 90.0)
  end
  begin
     id 19
     name lradius
     direction 1 -4.48951e-011 1.04424e-027   
     length 3.51014   
     axis 180 -30 -90   XYZ
    dof rx
    limits (-10.0 170.0)
  end
  begin
     id 20
     name lwrist
     direction 1 -4.48997e-011 -9.5942e-028   
     length 1.75507   
     axis 8.48502e-016 90 90   XYZ
    dof ry
    limits (-180.0 0.0)
 end
  begin
     id 21 
     name lhand
     direction 1 -4.48831e-011 -1.90777e-027   
     length 0.706179   
     axis 1.22306e-015 90 90   XYZ
    dof rx rz
    limits (-90.0 90.0)
           (-45.0 45.0)
  end
  begin
     id 22 
     name lfingers
     direction 1 -4.49108e-011 -3.85244e-027   
     length 0.569339   
     axis 2.44611e-015 90 90   XYZ
    dof rx
    limits (0.0 90.0)
  end
  begin
     id 23
     name lthumb
     direction 0.707107 -6.34953e-011 0.707107   
     length 0.817461   
     axis -90 45 -1.62303e-014   XYZ
    dof rx rz
    limits (-45.0 45.0)
           (-45.0 45.0)
  end
  begin
     id 24 
     name rclavicle
     direction -0.905329 0.382405 -0.184787   
     length 3.30787  
     axis 0 0 0   XYZ 
    dof ry rz
    limits (-10.0 20.0)
           (-20.0 0.0)
  end
  begin
     id 25 
     name rhumerus
     direction -1 -4.48953e-011 -9.15316e-029  
     length 5.28721   
     axis 180 30 90   XYZ
    dof rx ry rz
    limits (-90.0 60.0)
           (-90.0 90.0)
           (-90.0 90.0)
  end
  begin
     id 26 
     name rradius
     direction -1 -4.48987e-011 9.37824e-028   
     length 3.50544   
     axis 180 30 90   XYZ
    dof rx
    limits (-10.0 170.0)
  end
  begin
     id 27 
     name rwrist
     direction -1 -4.48967e-011 -9.58414e-028   
     length 1.75272   
     axis 8.48502e-016 -90 -90   XYZ
    dof ry
    limits (-180.0 0.0)
  end
  begin
     id 28
     name rhand
     direction -1 -4.48904e-011 -1.91266e-027   
     length 0.884996   
     axis 1.22306e-015 -90 -90   XYZ
    dof rx rz
    limits (-90.0 90.0)
           (-45.0 45.0)
  end
  begin
     id 29
     name rfingers
     direction -1 -4.4909e-011 -3.85015e-027   
     length 0.713507   
     axis 2.44611e-015 -90 -90   XYZ
    dof rx
    limits (0.0 90.0)
  end
  begin
     id 30
     name rthumb
     direction -0.707107 -6.34853e-011 0.707107   
     length 1.02446   
     axis -90 -45 1.62303e-014   XYZ
    dof rx rz
    limits (-45.0 45.0)
           (-45.0 45.0)
  end
:hierarchy
  begin
    root lhipjoint rhipjoint lowerback
    lhipjoint lfemur
    lfemur ltibia
    ltibia lfoot
    lfoot ltoes
    rhipjoint rfemur
    rfemur rtibia
    rtibia rfoot
    rfoot rtoes
    lowerback upperback
    upperback thorax
    thorax lowerneck lclavicle rclavicle
    lowerneck upperneck
    upperneck head
    lclavicle lhumerus
    lhumerus lradius
    lradius lwrist
    lwrist lhand lthumb
    lhand lfingers
    rclavicle rhumerus
    rhumerus rradius
    rradius rwrist
    rwrist rhand rthumb
    rhand rfingers
  end

#!OML:ASF F:\twosubjects\two\Thursday\Session 1\justin.ASF
:FULLY-SPECIFIED
:DEGREES
25
root 0.636666 18.3567 34.6229 -170.996 -2.43277 177.129
lowerback 0.904361 -1.79857 -5.96847
upperback -0.61286 -2.47166 2.306
thorax -0.786525 -1.19899 5.77516
lowerneck -15.5286 -8.12477 -11.164
upperneck 32.6881 -7.34944 2.97882
head 14.4639 -3.42248 2.04157
rclavicle -1.08338e-014 -5.56597e-015
rhumerus -32.8251 -14.3114 -76.6625
rradius 30.9888
rwrist -5.66742
rhand -7.99649 16.1417
rfingers 7.12502
rthumb 17.9122 -13.0534
lclavicle -1.08338e-014 -5.56597e-015
lhumerus -23.051 -4.11619 82.6037
lradius 42.8338
lwrist -1.3207
lhand -5.49464 34.613
lfingers 7.12502
lthumb 20.3181 63.5702
rfemur -37.1179 -3.2856 18.6946
rtibia 30.5396
rfoot -7.64458 -11.9908
rtoes -4.00776
lfemur 4.82954 1.87568 -26.6378
ltibia 14.7404
lfoot -14.5408 -4.49494
ltoes -17.7812
26
root 0.644595 18.369 34.4664 -171.002 -2.87048 177.541
lowerback 0.724627 -1.95841 -5.31401
upperback -0.385388 -2.66774 2.39948
thorax -0.446932 -1.31935 5.48842
lowerneck -15.8818 -8.11627 -10.9842
upperneck 32.6005 -7.40023 2.96869
head 14.4933 -3.43723 1.98391
rclavicle 1.35174e-014 2.70347e-014
rhumerus -32.4383 -14.926 -76.5962
rradius 30.7636
rwrist -5.58594
rhand -8.83332 14.1921
rfingers 7.12502
rthumb 17.1069 -15.0748
lclavicle 1.35174e-014 2.70347e-014
lhumerus -22.9788 -3.72764 82.4618
lradius 42.4431
lwrist -1.47462
lhand -5.26205 34.5
lfingers 7.12502
lthumb 20.5416 63.4332
rfemur -36.7514 -2.97203 18.9625
rtibia 30.7714
rfoot -6.88442 -12.6859
rtoes -3.19175
lfemur 4.67704 1.13258 -26.0756
ltibia 15.9899
lfoot -14.4463 -4.49209
ltoes -17.5188
27
root 0.651015 18.3784 34.3035 -170.926 -2.76647 178.093
lowerback 0.93502 -1.91694 -4.4873
upperback -0.458459 -2.61712 2.45307
thorax -0.681004 -1.2907 5.08548
lowerneck -16.6372 -8.1365 -10.5216
upperneck 32.9977 -7.36993 2.59928
head 14.7944 -3.41226 1.74299
rclavicle -1.2921e-014 3.4191e-014
rhumerus -32.5487 -15.1017 -76.7324
rradius 30.7631
rwrist -5.12673
rhand -11.245 10.9121
rfingers 7.12502
rthumb 14.7845 -18.5406
lclavicle -1.2921e-014 3.4191e-014
lhumerus -23.4009 -3.46782 82.2896
lradius 42.1162
lwrist -1.5458
lhand -5.18188 34.5038
lfingers 7.12502
lthumb 20.6187 63.4287
rfemur -36.5382 -2.67888 19.5045
rtibia 31.0374
rfoot -6.41083 -12.5584
rtoes -2.10085
lfemur 4.51094 1.07784 -25.4675
ltibia 17.0457
lfoot -14.0947 -4.44263
ltoes -19.7297
28
root 0.658663 18.3849 34.1412 -170.892 -2.54774 178.355
lowerback 0.799796 -1.70267 -4.31237
upperback -0.35289 -2.32833 2.61403
thorax -0.531609 -1.15563 5.14555
lowerneck -16.9584 -8.32457 -10.3197
upperneck 33.1277 -7.5773 2.2987
head 14.9172 -3.51625 1.53576
rclavicle 2.38542e-015 7.95139e-016
rhumerus -32.5202 -15.5459 -76.4268
rradius 30.707
rwrist -4.84075
rhand -11.3528 12.8163
rfingers 7.12502
rthumb 14.6806 -16.644
lclavicle 2.38542e-015 7.95139e-016
lhumerus -23.544 -3.41121 82.6064
lradius 41.6883
lwrist -1.60446
lhand -5.28435 34.6964
lfingers 7.12502
lthumb 20.5202 63.6319
rfemur -36.3073 -2.73141 19.8714
rtibia 31.3111
rfoot -6.27332 -11.6437
rtoes -1.14262
lfemur 4.36153 1.13016 -25.1821
ltibia 18.1889
lfoot -13.5628 -4.48302
ltoes -21.0598
29
root 0.666991 18.3998 33.9718 -171.167 -2.89424 178.401
lowerback 0.808345 -1.71818 -4.26112
upperback -0.167506 -2.35249 2.73987
thorax -0.33933 -1.17932 5.24407
lowerneck -16.8653 -8.45831 -10.3537
upperneck 33.1091 -7.75354 2.26252
head 14.9028 -3.59939 1.49535
rclavicle -3.02153e-014 7.15625e-015
rhumerus -32.4397 -16.0474 -76.097
rradius 30.5221
rwrist -4.83196
rhand -12.0526 12.4682
rfingers 7.12502
rthumb 14.0063 -17.0399
lclavicle -3.02153e-014 7.15625e-015
lhumerus -23.845 -3.31288 82.9247
lradius 41.2996
lwrist -1.51617
lhand -5.44243 34.7465
lfingers 7.12502
lthumb 20.3683 63.6983
rfemur -35.5421 -2.82004 19.8568
rtibia 31.5629
rfoot -6.31637 -11.1614
rtoes 0.968566
lfemur 4.48795 0.647931 -24.9768
ltibia 19.5044
lfoot -12.8154 -4.77474
ltoes -22.0415
30
root 0.674392 18.4165 33.8078 -171.247 -3.36347 178.529
lowerback 0.424754 -1.80199 -3.93527
upperback 0.132776 -2.45373 2.76389
thorax 0.184844 -1.25242 5.06316
lowerneck -16.9832 -8.52084 -10.3921
upperneck 32.9873 -7.97037 2.58414
head 14.9077 -3.66166 1.58682
rclavicle -2.38542e-015 9.54166e-015
rhumerus -32.1413 -16.851 -76.0363
rradius 30.3879
rwrist -4.59328
rhand -13.1756 11.2112
rfingers 7.12502
rthumb 12.924 -18.3686
lclavicle -2.38542e-015 9.54166e-015
lhumerus -23.8577 -3.33393 83.0199
lradius 40.8089
lwrist -1.45011
lhand -5.8748 34.6514
lfingers 7.12502
lthumb 19.9527 63.6471
rfemur -34.9287 -2.76416 19.8544
rtibia 31.7799
rfoot -6.40185 -11.1254
rtoes 3.76799
lfemur 4.29134 -0.0654247 -24.685
ltibia 20.9151
lfoot -11.8971 -5.03146
ltoes -22.586
31
root 0.680464 18.4336 33.6491 -171.16 -3.7107 178.545
lowerback -0.230462 -1.74473 -3.76604
upperback 0.53253 -2.36209 2.74804
thorax 0.945626 -1.23436 4.9205
lowerneck -17.2245 -8.71487 -10.5161
upperneck 32.7339 -8.43188 3.07192
head 14.916 -3.82548 1.70575
rclavicle -1.47101e-014 3.73715e-014
rhumerus -31.796 -17.8938 -75.8683
rradius 30.4215
rwrist -4.70222
rhand -12.3977 11.4742
rfingers 7.12502
rthumb 13.6738 -18.0566
lclavicle -1.47101e-014 3.73715e-014
lhumerus -23.5449 -3.65352 83.2223
lradius 40.2334
lwrist -1.47153
lhand -6.14977 34.7328
lfingers 7.12502
lthumb 19.6884 63.7558
rfemur -34.4999 -2.97874 19.847
rtibia 31.9145
rfoot -6.55965 -11.0217
rtoes 3.89585
lfemur 3.75045 -0.678944 -24.5483
ltibia 22.613
lfoot -11.17 -5.40187
ltoes -22.6844
32
root 0.691472 18.4489 33.4839 -171.11 -3.54236 178.794
lowerback 0.554809 -1.55798 -3.78348
upperback -0.128462 -2.14098 3.04651
thorax -0.188674 -1.08556 5.28337
lowerneck -16.6924 -8.90882 -10.6527
upperneck 33.0709 -8.5181 2.77321
head 14.9577 -3.88828 1.61451
rclavicle -1.09332e-014 -8.74653e-015
rhumerus -33.0765 -17.6778 -74.9812
rradius 30.653
rwrist -5.44756
rhand -11.3351 12.55
rfingers 7.12502
rthumb 14.6977 -16.909
lclavicle -1.09332e-014 -8.74653e-015
lhumerus -25.1239 -3.53723 83.8102
lradius 39.9103
lwrist -1.60781
lhand -5.68992 34.7945
lfingers 7.12502
lthumb 20.1304 63.7715
rfemur -34.0546 -2.694 20.0962
rtibia 32.013
rfoot -6.76134 -11.0693
rtoes 1.51978
lfemur 3.12264 -0.717524 -24.1784
ltibia 24.5518
lfoot -10.4723 -5.70299
ltoes -22.9738
33
root 0.704258 18.4639 33.3281 -170.958 -3.39598 179.207
lowerback 0.55905 -1.49559 -3.25269
upperback -0.345071 -2.06039 3.13356
thorax -0.439047 -1.03922 5.07671
lowerneck -16.1044 -8.91798 -10.5893
upperneck 32.9023 -8.54951 2.65627
head 14.7394 -3.90824 1.57104
rclavicle 1.68967e-015 -6.36111e-015
rhumerus -33.4384 -17.6607 -74.8434
rradius 30.5179
rwrist -5.53837
rhand -11.8387 13.1141
rfingers 7.12502
rthumb 14.2124 -16.3796
lclavicle 1.68967e-015 -6.36111e-015
lhumerus -25.9323 -3.49075 83.8969
lradius 39.423
lwrist -1.55773
lhand -5.14548 34.711
lfingers 7.12502
lthumb 20.6536 63.6321
rfemur -33.7762 -2.19585 20.5183
rtibia 32.1779
rfoot -6.95697 -11.334
rtoes -0.447199
lfemur 2.23611 -0.5895 -23.5785
ltibia 26.4702
lfoot -9.33329 -5.9197
ltoes -24.6326
34
root 0.710369 18.4839 33.1702 -171.049 -3.81828 179.083
lowerback 0.0173802 -1.52581 -3.12144
upperback 0.106505 -2.09019 3.03095
thorax 0.324244 -1.07898 4.86928
lowerneck -15.699 -8.95993 -10.621
upperneck 32.1564 -8.87485 3.07423
head 14.3596 -4.0313 1.69017
rclavicle -1.82882e-014 -5.56597e-015
rhumerus -32.8815 -18.2792 -74.9441
rradius 30.2348
rwrist -5.36129
rhand -11.7596 13.0521
rfingers 7.12502
rthumb 14.2886 -16.4363
lclavicle -1.82882e-014 -5.56597e-015
lhumerus -25.724 -3.79094 84.0466
lradius 38.875
lwrist -1.56632
lhand -4.89806 34.7335
lfingers 7.12502
lthumb 20.8914 63.6286
rfemur -33.1386 -2.55083 20.4647
rtibia 32.3985
rfoot -7.37942 -11.2058
rtoes -1.30766
lfemur 1.59824 -0.804716 -23.4588
ltibia 28.3249
lfoot -7.87772 -6.84261
ltoes -25.0867
35
root 0.710998 18.5021 33.0044 -171.222 -3.82142 178.739
lowerback -0.442529 -1.60665 -3.56123
upperback 0.513811 -2.19349 3.12991
thorax 1.03343 -1.15925 5.19971
lowerneck -15.5425 -8.85031 -11.1223
upperneck 31.7046 -8.81346 3.63067
head 14.1835 -4.01324 2.00682
rclavicle 3.39922e-014 -7.95139e-016
rhumerus -32.3466 -18.2319 -74.7984
rradius 30.1
rwrist -5.45359
rhand -10.9241 12.5663
rfingers 7.12502
rthumb 15.0936 -16.8634
lclavicle 3.39922e-014 -7.95139e-016
lhumerus -25.8538 -3.15948 84.3549
lradius 38.4243
lwrist -1.87621
lhand -5.07151 35.1113
lfingers 7.12502
lthumb 20.7247 64.0247
rfemur -32.4553 -3.2087 20.294
rtibia 32.5996
rfoot -7.80028 -10.3607
rtoes -2.16931
lfemur 1.20418 -0.679715 -23.6761
ltibia 30.0432
lfoot -6.03818 -7.97608
ltoes -24.2461
36
root 0.717791 18.529 32.8457 -171.248 -3.73429 178.74
lowerback 0.289104 -1.65045 -3.27603
upperback 0.0718166 -2.26447 3.10978
thorax 0.164149 -1.16351 5.04733
lowerneck -15.5605 -8.7978 -11.5718
upperneck 32.2372 -8.64076 3.99231
head 14.4647 -3.91383 2.27178
rclavicle 7.85199e-015 1.03368e-014
rhumerus -33.075 -17.8002 -74.619
rradius 30.1676
rwrist -5.47458
rhand -11.5052 11.5465
rfingers 7.12502
rthumb 14.5338 -17.9244
lclavicle 7.85199e-015 1.03368e-014
lhumerus -27.0078 -2.92408 84.3712
lradius 37.8624
lwrist -1.976
lhand -5.189 35.4447
lfingers 7.12502
lthumb 20.6118 64.3704
rfemur -31.9947 -3.73177 20.5401
rtibia 32.7173
rfoot -8.11783 -9.74041
rtoes -3.36391
lfemur 0.60211 -0.370322 -23.443
ltibia 31.7208
lfoot -3.75534 -8.97791
ltoes -23.2125
